<?xml version="1.0" encoding="UTF-8" standalone="no" ?>
<!DOCTYPE svg PUBLIC "-//W3C//DTD SVG 1.1//EN" "http://www.w3.org/Graphics/SVG/1.1/DTD/svg11.dtd">
<svg xmlns="http://www.w3.org/2000/svg" xmlns:xlink="http://www.w3.org/1999/xlink" version="1.1" width="500" height="500" viewBox="0 0 500 500" xml:space="preserve">
<desc>Created with Fabric.js 3.6.3</desc>
<defs>
</defs>
<rect x="0" y="0" width="100%" height="100%" fill="#C1A6A5"></rect>
<g transform="matrix(1.7349999999999999 0 0 1.7349999999999999 129 239)"  >
<g style=""   >
		<g transform="matrix(1 0 0 1 -36.9435 -18.509500000000003)"  >
<path style="stroke: none; stroke-width: 1; stroke-dasharray: none; stroke-linecap: butt; stroke-dashoffset: 0; stroke-linejoin: miter; stroke-miterlimit: 4; fill: rgb(238,210,210); fill-rule: nonzero; opacity: 1;"  transform=" translate(-13.056499999999998, -31.490499999999997)" d="M 17.45 17.089 c -1.534 9.887 -5.459 19.371 -10.137 28.619 c 0.097 0.329 0.198 0.66 0.308 0.992 c 5.093 -9.817 9.471 -19.892 11.179 -30.419 C 18.343 16.537 17.893 16.806 17.45 17.089 z" stroke-linecap="round" />
</g>
		<g transform="matrix(1 0 0 1 -30.249000000000002 -15.035499999999992)"  >
<path style="stroke: none; stroke-width: 1; stroke-dasharray: none; stroke-linecap: butt; stroke-dashoffset: 0; stroke-linejoin: miter; stroke-miterlimit: 4; fill: rgb(238,210,210); fill-rule: nonzero; opacity: 1;"  transform=" translate(-19.750999999999998, -34.96450000000001)" d="M 26.179 13.547 c -1.674 14.65 -8.292 28.213 -14.37 41.969 c 0.23 0.371 0.469 0.744 0.715 1.118 c 6.224 -14.237 13.304 -28.193 15.169 -43.339 C 27.187 13.362 26.682 13.446 26.179 13.547 z" stroke-linecap="round" />
</g>
		<g transform="matrix(1 0 0 1 -40.63700000000001 -21.196500000000004)"  >
<path style="stroke: none; stroke-width: 1; stroke-dasharray: none; stroke-linecap: butt; stroke-dashoffset: 0; stroke-linejoin: miter; stroke-miterlimit: 4; fill: rgb(238,210,210); fill-rule: nonzero; opacity: 1;"  transform=" translate(-9.363, -28.803499999999996)" d="M 9.95 24.49 c -1.521 2.334 -2.658 4.976 -3.289 7.873 c -0.288 1.322 -0.469 2.698 -0.531 4.123 c 2.425 -5.047 4.678 -10.139 6.466 -15.365 C 11.625 22.158 10.736 23.282 9.95 24.49 z" stroke-linecap="round" />
</g>
		<g transform="matrix(1 0 0 1 -34.2475 -16.925000000000004)"  >
<path style="stroke: none; stroke-width: 1; stroke-dasharray: none; stroke-linecap: butt; stroke-dashoffset: 0; stroke-linejoin: miter; stroke-miterlimit: 4; fill: rgb(238,210,210); fill-rule: nonzero; opacity: 1;"  transform=" translate(-15.752500000000001, -33.074999999999996)" d="M 20.946 15.211 c -0.905 12.375 -5.846 24.096 -11.754 35.477 c 0.123 0.268 0.25 0.537 0.382 0.807 c 6.248 -11.811 11.64 -23.976 12.739 -36.84 C 21.854 14.826 21.397 15.012 20.946 15.211 z" stroke-linecap="round" />
</g>
		<g transform="matrix(1 0 0 1 -25.165999999999997 -13.312853759598227)"  >
<path style="stroke: none; stroke-width: 1; stroke-dasharray: none; stroke-linecap: butt; stroke-dashoffset: 0; stroke-linejoin: miter; stroke-miterlimit: 4; fill: rgb(238,210,210); fill-rule: nonzero; opacity: 1;"  transform=" translate(-24.834000000000003, -36.68714624040177)" d="M 28.055 31.975 c 2.729 -5.942 5.363 -12.069 7.514 -18.346 c -0.313 -0.072 -0.628 -0.137 -0.944 -0.194 c -2.304 6.967 -5.249 13.76 -8.298 20.355 c 2.357 -6.718 4.102 -13.569 4.629 -20.699 c -0.507 -0.004 -1.015 0.009 -1.522 0.038 C 28.646 26.01 23.808 37.993 18.53 49.926 c -1.484 2.987 -2.97 5.975 -4.431 8.973 c 0.092 0.125 0.183 0.25 0.276 0.375 c 0.075 0.102 0.153 0.202 0.229 0.304 c 0.179 0.235 0.354 0.47 0.539 0.706 c 2.455 -5.651 5.06 -11.255 7.443 -16.9 C 24.455 39.599 26.296 35.804 28.055 31.975 z" stroke-linecap="round" />
</g>
		<g transform="matrix(1 0 0 1 -17.485 -7.611999999999995)"  >
<path style="stroke: none; stroke-width: 1; stroke-dasharray: none; stroke-linecap: butt; stroke-dashoffset: 0; stroke-linejoin: miter; stroke-miterlimit: 4; fill: rgb(238,210,210); fill-rule: nonzero; opacity: 1;"  transform=" translate(-32.515, -42.388000000000005)" d="M 43.095 17.148 c -5.158 17.098 -15.123 32.882 -22.33 49.474 c 0.332 0.335 0.672 0.67 1.018 1.006 c 7.036 -16.685 17.042 -32.446 22.482 -49.514 C 43.883 17.774 43.493 17.452 43.095 17.148 z" stroke-linecap="round" />
</g>
		<g transform="matrix(1 0 0 1 -8.722000000000003 -1.7479999999999905)"  >
<path style="stroke: none; stroke-width: 1; stroke-dasharray: none; stroke-linecap: butt; stroke-dashoffset: 0; stroke-linejoin: miter; stroke-miterlimit: 4; fill: rgb(238,210,210); fill-rule: nonzero; opacity: 1;"  transform=" translate(-41.278, -48.25200000000001)" d="M 51.368 26.001 c -4.266 16.744 -13.759 32.562 -22.254 48.058 c 0.181 0.144 0.367 0.288 0.55 0.433 c 9.174 -16.868 19.778 -34.104 23.778 -52.48 C 52.667 23.215 51.971 24.544 51.368 26.001 z" stroke-linecap="round" />
</g>
		<g transform="matrix(1 0 0 1 1.846499999999999 -2.2835000000000107)"  >
<path style="stroke: none; stroke-width: 1; stroke-dasharray: none; stroke-linecap: butt; stroke-dashoffset: 0; stroke-linejoin: miter; stroke-miterlimit: 4; fill: rgb(238,210,210); fill-rule: nonzero; opacity: 1;"  transform=" translate(-51.8465, -47.71649999999999)" d="M 63.079 14.046 c -2.471 23.532 -16.133 44.61 -24.014 67.178 c 0.349 0.229 0.702 0.458 1.058 0.687 c 7.75 -23.049 21.89 -44.415 24.505 -68.389 C 64.106 13.675 63.59 13.85 63.079 14.046 z" stroke-linecap="round" />
</g>
		<g transform="matrix(1 0 0 1 -21.5595 -10.957999999999995)"  >
<path style="stroke: none; stroke-width: 1; stroke-dasharray: none; stroke-linecap: butt; stroke-dashoffset: 0; stroke-linejoin: miter; stroke-miterlimit: 4; fill: rgb(238,210,210); fill-rule: nonzero; opacity: 1;"  transform=" translate(-28.4405, -39.042)" d="M 39.638 15.043 c -0.3 -0.143 -0.603 -0.279 -0.908 -0.405 c -2.718 8.781 -6.527 17.295 -10.373 25.492 c -3.575 7.619 -7.432 15.121 -11.114 22.7 c 0.178 0.205 0.354 0.41 0.537 0.616 c 4.512 -9.409 9.358 -18.674 13.707 -28.142 C 34.492 28.76 37.383 21.989 39.638 15.043 z" stroke-linecap="round" />
</g>
		<g transform="matrix(1 0 0 1 -14.109499999999995 -4.343999999999994)"  >
<path style="stroke: none; stroke-width: 1; stroke-dasharray: none; stroke-linecap: butt; stroke-dashoffset: 0; stroke-linejoin: miter; stroke-miterlimit: 4; fill: rgb(238,210,210); fill-rule: nonzero; opacity: 1;"  transform=" translate(-35.8905, -45.656000000000006)" d="M 46.527 20.472 c -5.151 17.086 -15.104 32.859 -22.312 49.436 c 0.344 0.311 0.691 0.621 1.047 0.932 c 6.979 -16.512 16.848 -32.125 22.304 -49 C 47.231 21.362 46.886 20.906 46.527 20.472 z" stroke-linecap="round" />
</g>
		<g transform="matrix(1 0 0 1 -4.478999999999996 -2.9629999999999903)"  >
<path style="stroke: none; stroke-width: 1; stroke-dasharray: none; stroke-linecap: butt; stroke-dashoffset: 0; stroke-linejoin: miter; stroke-miterlimit: 4; fill: rgb(238,210,210); fill-rule: nonzero; opacity: 1;"  transform=" translate(-45.521, -47.037000000000006)" d="M 56.802 17.978 C 54.846 38.816 43.145 58.094 32.819 76.89 c 0.187 0.137 0.37 0.273 0.56 0.411 c 10.523 -19.3 22.817 -39.089 24.844 -60.528 C 57.735 17.146 57.262 17.549 56.802 17.978 z" stroke-linecap="round" />
</g>
		<g transform="matrix(1 0 0 1 5.609999999999999 -1.4774999999999991)"  >
<path style="stroke: none; stroke-width: 1; stroke-dasharray: none; stroke-linecap: butt; stroke-dashoffset: 0; stroke-linejoin: miter; stroke-miterlimit: 4; fill: rgb(238,210,210); fill-rule: nonzero; opacity: 1;"  transform=" translate(-55.61, -48.5225)" d="M 66.819 13.004 C 65.738 37.989 51.254 60.02 42.833 83.62 c 0.347 0.214 0.698 0.428 1.051 0.642 c 8.262 -23.97 23.188 -46.178 24.503 -71.479 C 67.861 12.837 67.339 12.91 66.819 13.004 z" stroke-linecap="round" />
</g>
		<g transform="matrix(1 0 0 1 10.333999999999996 -0.7394999999999996)"  >
<path style="stroke: none; stroke-width: 1; stroke-dasharray: none; stroke-linecap: butt; stroke-dashoffset: 0; stroke-linejoin: miter; stroke-miterlimit: 4; fill: rgb(238,210,210); fill-rule: nonzero; opacity: 1;"  transform=" translate(-60.333999999999996, -49.2605)" d="M 73.993 12.896 c -2.042 25.786 -19.062 48.672 -28.604 72.269 c 0.258 0.153 0.514 0.307 0.774 0.46 c 9.24 -23.713 26.486 -46.707 29.116 -72.512 C 74.853 13.029 74.423 12.957 73.993 12.896 z" stroke-linecap="round" />
</g>
		<g transform="matrix(1 0 0 1 18.268500000000003 0.3499999999999943)"  >
<path style="stroke: none; stroke-width: 1; stroke-dasharray: none; stroke-linecap: butt; stroke-dashoffset: 0; stroke-linejoin: miter; stroke-miterlimit: 4; fill: rgb(238,210,210); fill-rule: nonzero; opacity: 1;"  transform=" translate(-68.2685, -50.349999999999994)" d="M 80.469 14.739 c -0.125 26.066 -18.277 47.143 -26.041 71.222 c 0.641 -0.391 1.271 -0.782 1.895 -1.173 c 7.766 -23.44 24.974 -43.948 25.786 -69.262 C 81.57 15.244 81.023 14.98 80.469 14.739 z" stroke-linecap="round" />
</g>
		<g transform="matrix(1 0 0 1 28.524873766408113 -2.8825000000000074)"  >
<path style="stroke: none; stroke-width: 1; stroke-dasharray: none; stroke-linecap: butt; stroke-dashoffset: 0; stroke-linejoin: miter; stroke-miterlimit: 4; fill: rgb(238,210,210); fill-rule: nonzero; opacity: 1;"  transform=" translate(-78.52487376640812, -47.11749999999999)" d="M 87.871 19.662 c -0.537 -0.517 -1.097 -1.008 -1.676 -1.471 c -0.036 0.08 -0.055 0.156 -0.045 0.223 c 2.958 20.729 -7.146 39.496 -17.196 57.63 c 0.464 -0.357 0.919 -0.714 1.368 -1.07 C 79.986 57.522 89.706 39.475 87.871 19.662 z" stroke-linecap="round" />
</g>
		<g transform="matrix(1 0 0 1 40.8758740151426 -4.780000000000001)"  >
<path style="stroke: none; stroke-width: 1; stroke-dasharray: none; stroke-linecap: butt; stroke-dashoffset: 0; stroke-linejoin: miter; stroke-miterlimit: 4; fill: rgb(238,210,210); fill-rule: nonzero; opacity: 1;"  transform=" translate(-90.8758740151426, -45.22)" d="M 94.601 31.859 c -1.172 9.224 -4.264 18.024 -7.919 26.722 c 1.226 -1.659 2.305 -3.291 3.24 -4.893 c 3.411 -5.838 4.967 -11.279 5.133 -16.167 C 95.122 35.539 94.959 33.649 94.601 31.859 z" stroke-linecap="round" />
</g>
		<g transform="matrix(1 0 0 1 13.571500000000007 0.5405000000000015)"  >
<path style="stroke: none; stroke-width: 1; stroke-dasharray: none; stroke-linecap: butt; stroke-dashoffset: 0; stroke-linejoin: miter; stroke-miterlimit: 4; fill: rgb(238,210,210); fill-rule: nonzero; opacity: 1;"  transform=" translate(-63.57150000000001, -50.5405)" d="M 77.096 13.545 c -1.184 26.358 -18.479 49.618 -28.366 73.562 c 0.252 0.143 0.51 0.286 0.765 0.429 c 9.574 -23.997 27.049 -47.303 28.918 -73.588 C 77.977 13.801 77.538 13.667 77.096 13.545 z" stroke-linecap="round" />
</g>
		<g transform="matrix(1 0 0 1 22.34100000000001 -0.4719999999999942)"  >
<path style="stroke: none; stroke-width: 1; stroke-dasharray: none; stroke-linecap: butt; stroke-dashoffset: 0; stroke-linejoin: miter; stroke-miterlimit: 4; fill: rgb(238,210,210); fill-rule: nonzero; opacity: 1;"  transform=" translate(-72.34100000000001, -49.528000000000006)" d="M 83.6 16.37 c -0.094 0.152 -0.162 0.31 -0.161 0.46 C 83.659 41.011 68.232 60.858 59.6 82.686 c 0.679 -0.446 1.346 -0.892 2.002 -1.336 c 8.554 -21.205 23.15 -40.511 23.48 -64 C 84.599 17.005 84.104 16.679 83.6 16.37 z" stroke-linecap="round" />
</g>
		<g transform="matrix(1 0 0 1 34.18055892687966 -5.0064999999999955)"  >
<path style="stroke: none; stroke-width: 1; stroke-dasharray: none; stroke-linecap: butt; stroke-dashoffset: 0; stroke-linejoin: miter; stroke-miterlimit: 4; fill: rgb(238,210,210); fill-rule: nonzero; opacity: 1;"  transform=" translate(-84.18055892687966, -44.993500000000004)" d="M 90.878 23.165 c -0.526 -0.75 -1.095 -1.465 -1.698 -2.144 c -0.049 0.096 -0.081 0.188 -0.07 0.265 c 2.421 16.966 -3.909 32.615 -11.797 47.68 c 0.55 -0.516 1.088 -1.029 1.609 -1.542 C 86.234 53.383 92.137 38.823 90.878 23.165 z" stroke-linecap="round" />
</g>
</g>
</g>
<g transform="matrix(1,0,0,1,255.76897035193446,245.39706183191274)" style=""  ><path fill="#000000" opacity="1" d="M-90.95 9.72L-90.10 9.72L-90.10 26.76L-128.44 26.76L-128.44 25.91L-123.33 25.91L-123.33-32.02L-128.44-32.02L-128.44-32.88L-108.84-32.88L-108.84-32.02L-113.95-32.02L-113.95 25.91L-96.91 25.91L-90.95 9.72Z"/><path fill="#000000" opacity="1" d="M-63.86 25.91L-59.60 25.91L-59.60 26.76L-76.64 26.76L-76.64 25.91L-72.38 25.91L-72.38-13.28L-76.64-13.28L-76.64-14.13L-63.86-14.13L-63.86 25.91ZM-68.12-22.65L-68.12-22.65Q-70.33-22.65-71.78-24.10Q-73.23-25.55-73.23-27.76L-73.23-27.76Q-73.23-29.98-71.78-31.43Q-70.33-32.88-68.12-32.88L-68.12-32.88Q-65.90-32.88-64.45-31.43Q-63.01-29.98-63.01-27.76L-63.01-27.76Q-63.01-25.55-64.45-24.10Q-65.90-22.65-68.12-22.65Z"/><path fill="#000000" opacity="1" d="M-33.36-32.88L-33.36 25.91L-29.10 25.91L-29.10 26.76L-46.14 26.76L-46.14 25.91L-41.88 25.91L-41.88-32.02L-46.14-32.02L-46.14-32.88L-33.36-32.88Z"/><path fill="#000000" opacity="1" d="M4.39 27.62L4.39 27.62Q6.60 27.62 8.48 27.11Q10.35 26.59 11.72 25.91L11.72 25.91Q13.25 25.15 14.61 24.21L14.61 24.21L14.61-11.58Q13.25-12.51 11.72-13.28L11.72-13.28Q10.35-13.96 8.48-14.47Q6.60-14.98 4.39-14.98L4.39-14.98Q2.17-14.98 0.30-14.47Q-1.58-13.96-2.94-13.28L-2.94-13.28Q-4.47-12.51-5.84-11.58L-5.84-11.58L-5.84 24.21Q-4.47 25.15-2.94 25.91L-2.94 25.91Q-1.58 26.59 0.30 27.11Q2.17 27.62 4.39 27.62ZM4.39-15.84L4.39-15.84Q8.39-15.84 12.01-14.17Q15.63-12.51 18.40-9.57Q21.17-6.63 22.79-2.54Q24.41 1.55 24.41 6.32L24.41 6.32Q24.41 11.09 22.79 15.18Q21.17 19.27 18.40 22.21Q15.63 25.15 12.01 26.81Q8.39 28.47 4.39 28.47L4.39 28.47Q0.38 28.47-3.24 26.81Q-6.86 25.15-9.63 22.21Q-12.40 19.27-14.02 15.18Q-15.63 11.09-15.63 6.32L-15.63 6.32Q-15.63 1.55-14.02-2.54Q-12.40-6.63-9.63-9.57Q-6.86-12.51-3.24-14.17Q0.38-15.84 4.39-15.84Z"/><path fill="#000000" opacity="1" d="M58.75 27.62L58.75 27.62Q60.96 27.62 62.84 27.11Q64.71 26.59 66.07 25.91L66.07 25.91Q67.61 25.15 68.97 24.21L68.97 24.21L68.97-11.58Q67.61-12.51 66.07-13.28L66.07-13.28Q64.71-13.96 62.84-14.47Q60.96-14.98 58.75-14.98L58.75-14.98Q56.53-14.98 54.66-14.47Q52.78-13.96 51.42-13.28L51.42-13.28Q49.88-12.51 48.52-11.58L48.52-11.58L48.52 24.21Q49.88 25.15 51.42 25.91L51.42 25.91Q52.78 26.59 54.66 27.11Q56.53 27.62 58.75 27.62ZM58.75-15.84L58.75-15.84Q62.75-15.84 66.37-14.17Q69.99-12.51 72.76-9.57Q75.53-6.63 77.15-2.54Q78.77 1.55 78.77 6.32L78.77 6.32Q78.77 11.09 77.15 15.18Q75.53 19.27 72.76 22.21Q69.99 25.15 66.37 26.81Q62.75 28.47 58.75 28.47L58.75 28.47Q54.74 28.47 51.12 26.81Q47.50 25.15 44.73 22.21Q41.96 19.27 40.34 15.18Q38.72 11.09 38.72 6.32L38.72 6.32Q38.72 1.55 40.34-2.54Q41.96-6.63 44.73-9.57Q47.50-12.51 51.12-14.17Q54.74-15.84 58.75-15.84Z"/><path fill="#000000" opacity="1" d="M131.00 25.91L135.26 25.91L135.26 26.76L118.22 26.76L118.22 25.91L121.62 25.91L108.42 6.74L105.86 10.58L105.86 25.91L110.12 25.91L110.12 26.76L93.08 26.76L93.08 25.91L97.34 25.91L97.34-32.02L93.08-32.02L93.08-32.88L105.86-32.88L105.86 9.30L121.20-13.28L114.38-13.28L114.38-14.13L128.01-14.13L128.01-13.28L122.05-13.28L113.10-0.07L131.00 25.91Z"/></g>
<g transform="matrix(1,0,0,1,255.79061193703984,305.79200000000003)" style=""  ><path fill="#000000" opacity="0.71" d="M-29.69 4.59C-30.14 4.59-29.51 2.94-29.51 1.96C-29.51 0.70-30.07-0.11-31.04-0.66C-31.29-0.81-31.28-0.90-31.08-1.04C-30.18-1.67-29.57-2.57-29.57-3.80C-29.57-6.15-31.69-7.49-34.12-7.49L-37.23-7.49C-37.54-7.49-37.79-7.23-37.79-6.77C-37.79-6.77-37.79 5.11-37.79 5.26C-37.79 5.40-37.54 5.65-37.23 5.65L-37.18 5.65C-36.87 5.65-36.62 5.44-36.62 5.26C-36.62 5.10-36.62 0.11-36.62 0.11C-36.62-0.05-36.57-0.09-36.41-0.09L-33.60-0.09C-31.51-0.09-30.70 0.51-30.70 1.96C-30.70 3.21-31.11 4.63-30.61 5.29C-30.41 5.56-30.02 5.76-29.69 5.76C-28.59 5.76-28.70 4.59-29.69 4.59ZM-34.12-1.26L-36.42-1.26C-36.59-1.26-36.62-1.31-36.62-1.47L-36.62-6.14C-36.62-6.28-36.57-6.33-36.41-6.33L-34.12-6.33C-32.34-6.33-30.72-5.52-30.72-3.80C-30.72-2.10-32.28-1.26-34.12-1.26Z"/><path fill="#000000" opacity="0.71" d="M-16.48 4.48L-22.15 4.48C-22.31 4.48-22.35 4.43-22.35 4.27L-22.35-0.30C-22.35-0.47-22.29-0.50-22.11-0.50L-17.51-0.50C-17.20-0.50-16.95-0.75-16.95-1.06L-16.95-1.10C-16.95-1.40-17.20-1.65-17.51-1.65L-22.15-1.65C-22.31-1.65-22.35-1.71-22.35-1.89L-22.35-6.14C-22.35-6.28-22.29-6.33-22.11-6.33L-16.82-6.33C-16.52-6.33-16.26-6.59-16.26-6.89L-16.26-6.93C-16.26-7.23-16.52-7.49-16.82-7.49L-22.96-7.49C-23.27-7.49-23.50-7.23-23.50-6.93L-23.50 5.10C-23.50 5.40-23.27 5.65-22.96 5.65L-16.48 5.65C-16.17 5.65-15.92 5.40-15.92 5.10L-15.92 5.04C-15.92 4.74-16.17 4.48-16.48 4.48Z"/><path fill="#000000" opacity="0.71" d="M-1.79-7.49L-1.85-7.49C-2.15-7.49-2.40-7.23-2.40-6.93C-2.40-6.93-2.40 2.00-2.40 2.47C-2.40 2.94-2.49 3.10-2.80 2.63C-3.12 2.18-9.60-7.25-9.60-7.25C-9.77-7.49-10.05-7.54-10.32-7.43C-10.52-7.36-10.67-7.09-10.67-6.91L-10.67 5.10C-10.67 5.40-10.41 5.65-10.11 5.65L-10.05 5.65C-9.75 5.65-9.50 5.40-9.50 5.10C-9.50 5.10-9.50-3.62-9.50-4.17C-9.50-4.73-9.33-4.80-9.05-4.39C-8.78-3.99-2.31 5.40-2.31 5.40C-2.15 5.64-1.86 5.71-1.61 5.60C-1.40 5.51-1.23 5.31-1.23 5.08L-1.23-6.93C-1.23-7.23-1.49-7.49-1.79-7.49Z"/><path fill="#000000" opacity="0.71" d="M11.33-7.49L4.27-7.49C3.97-7.49 3.72-7.23 3.72-6.93L3.72-6.89C3.72-6.59 3.97-6.33 4.27-6.33L7.03-6.33C7.19-6.33 7.23-6.28 7.23-6.10L7.23 5.10C7.23 5.40 7.48 5.65 7.78 5.65L7.82 5.65C8.13 5.65 8.38 5.40 8.38 5.10L8.38-6.14C8.38-6.28 8.43-6.33 8.61-6.33L11.33-6.33C11.64-6.33 11.89-6.59 11.89-6.89L11.89-6.93C11.89-7.23 11.64-7.49 11.33-7.49Z"/><path fill="#000000" opacity="0.71" d="M21.39-7.14C21.30-7.38 21.09-7.49 20.85-7.49C20.64-7.49 20.40-7.38 20.31-7.14L15.27 4.86C15.16 5.13 15.29 5.47 15.58 5.58L15.61 5.60C15.90 5.73 16.23 5.58 16.35 5.31C16.35 5.31 17.63 2.27 17.72 2.05C17.81 1.84 17.94 1.77 18.15 1.77C18.33 1.77 22.35 1.77 23.53 1.77C23.75 1.77 23.89 1.84 23.97 2.00C24.04 2.16 25.35 5.31 25.35 5.31C25.48 5.58 25.80 5.73 26.09 5.60L26.13 5.58C26.41 5.47 26.56 5.13 26.43 4.86L21.39-7.14ZM18.42 0.36C18.48 0.24 20.11-3.90 20.67-5.11C20.82-5.42 20.89-5.42 21.01-5.11C21.52-3.90 23.17 0.13 23.26 0.31C23.35 0.52 23.32 0.60 23.07 0.60C22.83 0.60 19.65 0.60 18.64 0.60C18.44 0.60 18.37 0.52 18.42 0.36Z"/><path fill="#000000" opacity="0.71" d="M37.95 4.48L32.81 4.48C32.64 4.48 32.61 4.43 32.61 4.27L32.61-6.93C32.61-7.23 32.36-7.49 32.05-7.49L32.00-7.49C31.69-7.49 31.44-7.23 31.44-6.93L31.44 5.10C31.44 5.40 31.69 5.65 32.00 5.65L37.95 5.65C38.26 5.65 38.51 5.40 38.51 5.10L38.51 5.04C38.51 4.74 38.26 4.48 37.95 4.48Z"/></g>
</svg>