<svg width="300" height="100" xmlns="http://www.w3.org/2000/svg">
 <desc>Created with Fabric.js 3.6.3</desc>

 <g>
  <title>background</title>
  <rect fill="none" id="canvas_background" height="102" width="302" y="-1" x="-1"/>
 </g>
 <g>
  <title>Layer 1</title>
  <g id="svg_41" transform="matrix(1,0,0,1,255.76897035193446,245.39706183191274) ">
   <path id="svg_42" d="m-198.283364,-192.946675l0.85,0l0,17.04l-38.34,0l0,-0.85l5.11,0l0,-57.93l-5.11,0l0,-0.86l19.6,0l0,0.86l-5.11,0l0,57.93l17.04,0l5.96,-16.19z" fill="#000000"/>
   <path id="svg_43" d="m-171.193364,-176.756675l4.26,0l0,0.85l-17.04,0l0,-0.85l4.26,0l0,-39.19l-4.26,0l0,-0.85l12.78,0l0,40.04zm-4.26,-48.56l0,0q-2.21,0 -3.66,-1.45q-1.45,-1.45 -1.45,-3.66l0,0q0,-2.22 1.45,-3.67q1.45,-1.45 3.66,-1.45l0,0q2.22,0 3.67,1.45q1.44,1.45 1.44,3.67l0,0q0,2.21 -1.44,3.66q-1.45,1.45 -3.67,1.45z" fill="#000000"/>
   <path id="svg_44" d="m-140.693364,-235.546675l0,58.79l4.26,0l0,0.85l-17.04,0l0,-0.85l4.26,0l0,-57.93l-4.26,0l0,-0.86l12.78,0z" fill="#000000"/>
   <path id="svg_45" d="m-102.943364,-175.046675l0,0q2.21,0 4.09,-0.51q1.87,-0.52 3.24,-1.2l0,0q1.53,-0.76 2.89,-1.7l0,0l0,-35.79q-1.36,-0.93 -2.89,-1.7l0,0q-1.37,-0.68 -3.24,-1.19q-1.88,-0.51 -4.09,-0.51l0,0q-2.22,0 -4.09,0.51q-1.88,0.51 -3.24,1.19l0,0q-1.53,0.77 -2.9,1.7l0,0l0,35.79q1.37,0.94 2.9,1.7l0,0q1.36,0.68 3.24,1.2q1.87,0.51 4.09,0.51zm0,-43.46l0,0q4,0 7.62,1.67q3.62,1.66 6.39,4.6q2.77,2.94 4.39,7.03q1.62,4.09 1.62,8.86l0,0q0,4.77 -1.62,8.86q-1.62,4.09 -4.39,7.03q-2.77,2.94 -6.39,4.6q-3.62,1.66 -7.62,1.66l0,0q-4.01,0 -7.63,-1.66q-3.62,-1.66 -6.39,-4.6q-2.77,-2.94 -4.39,-7.03q-1.61,-4.09 -1.61,-8.86l0,0q0,-4.77 1.61,-8.86q1.62,-4.09 4.39,-7.03q2.77,-2.94 6.39,-4.6q3.62,-1.67 7.63,-1.67z" fill="#000000"/>
   <path id="svg_46" d="m-48.583364,-175.046675l0,0q2.21,0 4.09,-0.51q1.87,-0.52 3.23,-1.2l0,0q1.54,-0.76 2.9,-1.7l0,0l0,-35.79q-1.36,-0.93 -2.9,-1.7l0,0q-1.36,-0.68 -3.23,-1.19q-1.88,-0.51 -4.09,-0.51l0,0q-2.22,0 -4.09,0.51q-1.88,0.51 -3.24,1.19l0,0q-1.54,0.77 -2.9,1.7l0,0l0,35.79q1.36,0.94 2.9,1.7l0,0q1.36,0.68 3.24,1.2q1.87,0.51 4.09,0.51zm0,-43.46l0,0q4,0 7.62,1.67q3.62,1.66 6.39,4.6q2.77,2.94 4.39,7.03q1.62,4.09 1.62,8.86l0,0q0,4.77 -1.62,8.86q-1.62,4.09 -4.39,7.03q-2.77,2.94 -6.39,4.6q-3.62,1.66 -7.62,1.66l0,0q-4.01,0 -7.63,-1.66q-3.62,-1.66 -6.39,-4.6q-2.77,-2.94 -4.39,-7.03q-1.62,-4.09 -1.62,-8.86l0,0q0,-4.77 1.62,-8.86q1.62,-4.09 4.39,-7.03q2.77,-2.94 6.39,-4.6q3.62,-1.67 7.63,-1.67z" fill="#000000"/>
   <path id="svg_47" d="m23.666636,-176.756675l4.26,0l0,0.85l-17.04,0l0,-0.85l3.4,0l-13.2,-19.17l-2.56,3.84l0,15.33l4.26,0l0,0.85l-17.04,0l0,-0.85l4.26,0l0,-57.93l-4.26,0l0,-0.86l12.78,0l0,42.18l15.34,-22.58l-6.82,0l0,-0.85l13.63,0l0,0.85l-5.96,0l-8.95,13.21l17.9,25.98z" fill="#000000"/>
  </g>
  <g id="svg_48" transform="matrix(1,0,0,1,255.79061193703984,305.79200000000003) ">
   <path id="svg_49" d="m-131.690049,-209.743301c-0.45,0 0.18,-1.65 0.18,-2.63c0,-1.26 -0.56,-2.07 -1.53,-2.62c-0.25,-0.15 -0.24,-0.24 -0.04,-0.38c0.9,-0.63 1.51,-1.53 1.51,-2.76c0,-2.35 -2.12,-3.69 -4.55,-3.69l-3.11,0c-0.31,0 -0.56,0.26 -0.56,0.72c0,0 0,11.88 0,12.03c0,0.14 0.25,0.39 0.56,0.39l0.05,0c0.31,0 0.56,-0.21 0.56,-0.39c0,-0.16 0,-5.15 0,-5.15c0,-0.16 0.05,-0.2 0.21,-0.2l2.81,0c2.09,0 2.9,0.6 2.9,2.05c0,1.25 -0.41,2.67 0.09,3.33c0.2,0.27 0.59,0.47 0.92,0.47c1.1,0 0.99,-1.17 0,-1.17zm-4.43,-5.85l-2.3,0c-0.17,0 -0.2,-0.05 -0.2,-0.21l0,-4.67c0,-0.14 0.05,-0.19 0.21,-0.19l2.29,0c1.78,0 3.4,0.81 3.4,2.53c0,1.7 -1.56,2.54 -3.4,2.54z" opacity="0.71" fill="#000000"/>
   <path id="svg_50" d="m-118.480049,-209.853301l-5.67,0c-0.16,0 -0.2,-0.05 -0.2,-0.21l0,-4.57c0,-0.17 0.06,-0.2 0.24,-0.2l4.6,0c0.31,0 0.56,-0.25 0.56,-0.56l0,-0.04c0,-0.3 -0.25,-0.55 -0.56,-0.55l-4.64,0c-0.16,0 -0.2,-0.06 -0.2,-0.24l0,-4.25c0,-0.14 0.06,-0.19 0.24,-0.19l5.29,0c0.3,0 0.56,-0.26 0.56,-0.56l0,-0.04c0,-0.3 -0.26,-0.56 -0.56,-0.56l-6.14,0c-0.31,0 -0.54,0.26 -0.54,0.56l0,12.03c0,0.3 0.23,0.55 0.54,0.55l6.48,0c0.31,0 0.56,-0.25 0.56,-0.55l0,-0.06c0,-0.3 -0.25,-0.56 -0.56,-0.56z" opacity="0.71" fill="#000000"/>
   <path id="svg_51" d="m-103.790049,-221.823301l-0.06,0c-0.3,0 -0.55,0.26 -0.55,0.56c0,0 0,8.93 0,9.4c0,0.47 -0.09,0.63 -0.4,0.16c-0.32,-0.45 -6.8,-9.88 -6.8,-9.88c-0.17,-0.24 -0.45,-0.29 -0.72,-0.18c-0.2,0.07 -0.35,0.34 -0.35,0.52l0,12.01c0,0.3 0.26,0.55 0.56,0.55l0.06,0c0.3,0 0.55,-0.25 0.55,-0.55c0,0 0,-8.72 0,-9.27c0,-0.56 0.17,-0.63 0.45,-0.22c0.27,0.4 6.74,9.79 6.74,9.79c0.16,0.24 0.45,0.31 0.7,0.2c0.21,-0.09 0.38,-0.29 0.38,-0.52l0,-12.01c0,-0.3 -0.26,-0.56 -0.56,-0.56z" opacity="0.71" fill="#000000"/>
   <path id="svg_52" d="m-90.670049,-221.823301l-7.06,0c-0.3,0 -0.55,0.26 -0.55,0.56l0,0.04c0,0.3 0.25,0.56 0.55,0.56l2.76,0c0.16,0 0.2,0.05 0.2,0.23l0,11.2c0,0.3 0.25,0.55 0.55,0.55l0.04,0c0.31,0 0.56,-0.25 0.56,-0.55l0,-11.24c0,-0.14 0.05,-0.19 0.23,-0.19l2.72,0c0.31,0 0.56,-0.26 0.56,-0.56l0,-0.04c0,-0.3 -0.25,-0.56 -0.56,-0.56z" opacity="0.71" fill="#000000"/>
   <path id="svg_53" d="m-80.610049,-221.473301c-0.09,-0.24 -0.3,-0.35 -0.54,-0.35c-0.21,0 -0.45,0.11 -0.54,0.35l-5.04,12c-0.11,0.27 0.02,0.61 0.31,0.72l0.03,0.02c0.29,0.13 0.62,-0.02 0.74,-0.29c0,0 1.28,-3.04 1.37,-3.26c0.09,-0.21 0.22,-0.28 0.43,-0.28c0.18,0 4.2,0 5.38,0c0.22,0 0.36,0.07 0.44,0.23c0.07,0.16 1.38,3.31 1.38,3.31c0.13,0.27 0.45,0.42 0.74,0.29l0.04,-0.02c0.28,-0.11 0.43,-0.45 0.3,-0.72l-5.04,-12zm-2.97,7.5c0.06,-0.12 1.69,-4.26 2.25,-5.47c0.15,-0.31 0.22,-0.31 0.34,0c0.51,1.21 2.16,5.24 2.25,5.42c0.09,0.21 0.06,0.29 -0.19,0.29c-0.24,0 -3.42,0 -4.43,0c-0.2,0 -0.27,-0.08 -0.22,-0.24z" opacity="0.71" fill="#000000"/>
   <path id="svg_54" d="m-64.050049,-209.853301l-5.14,0c-0.17,0 -0.2,-0.05 -0.2,-0.21l0,-11.2c0,-0.3 -0.25,-0.56 -0.56,-0.56l-0.05,0c-0.31,0 -0.56,0.26 -0.56,0.56l0,12.03c0,0.3 0.25,0.55 0.56,0.55l5.95,0c0.31,0 0.56,-0.25 0.56,-0.55l0,-0.06c0,-0.3 -0.25,-0.56 -0.56,-0.56z" opacity="0.71" fill="#000000"/>
  </g>
 </g>
</svg>