<svg width="500" height="250" xmlns="http://www.w3.org/2000/svg">
 <desc>Created with Fabric.js 3.6.3</desc>

 <g>
  <title>background</title>
  <rect fill="none" id="canvas_background" height="252" width="502" y="-1" x="-1"/>
 </g>
 <g>
  <title>Layer 1</title>
  <g id="svg_1" transform="matrix(1.7349999999999999,0,0,1.7349999999999999,129,239) ">
   <g id="svg_2">
    <g id="svg_3" transform="matrix(1,0,0,1,-36.9435,-18.509500000000003) ">
     <path fill="#f0ded0" id="svg_4" stroke=" none" stroke-linecap="round" d="m14.191771,-81.260287c-1.534,9.887 -5.459,19.371 -10.137,28.619c0.097,0.329 0.198,0.66 0.308,0.992c5.093,-9.817 9.471,-19.892 11.179,-30.419c-0.457,0.256 -0.907,0.525 -1.35,0.808z"/>
    </g>
    <g id="svg_5" transform="matrix(1,0,0,1,-30.249000000000002,-15.035499999999992) ">
     <path fill="#f0ded0" id="svg_6" stroke=" none" stroke-linecap="round" d="m16.226272,-88.276288c-1.674,14.65 -8.292,28.213 -14.37,41.969c0.23,0.371 0.469,0.744 0.715,1.118c6.224,-14.237 13.304,-28.193 15.169,-43.339c-0.506,0.067 -1.011,0.151 -1.514,0.252z"/>
    </g>
    <g id="svg_7" transform="matrix(1,0,0,1,-40.63700000000001,-21.196500000000004) ">
     <path fill="#f0ded0" id="svg_8" stroke=" none" stroke-linecap="round" d="m10.385271,-71.172287c-1.521,2.334 -2.658,4.976 -3.289,7.873c-0.288,1.322 -0.469,2.698 -0.531,4.123c2.425,-5.047 4.678,-10.139 6.466,-15.365c-0.971,1.037 -1.86,2.161 -2.646,3.369z"/>
    </g>
    <g id="svg_9" transform="matrix(1,0,0,1,-34.2475,-16.925000000000004) ">
     <path fill="#f0ded0" id="svg_10" stroke=" none" stroke-linecap="round" d="m14.991772,-84.722788c-0.905,12.375 -5.846,24.096 -11.754,35.477c0.123,0.268 0.25,0.537 0.382,0.807c6.248,-11.811 11.64,-23.976 12.739,-36.84c-0.459,0.171 -0.916,0.357 -1.367,0.556z"/>
    </g>
    <g id="svg_11" transform="matrix(1,0,0,1,-25.165999999999997,-13.312853759598227) ">
     <path fill="#f0ded0" id="svg_12" stroke=" none" stroke-linecap="round" d="m13.019272,-71.570933c2.729,-5.942 5.363,-12.069 7.514,-18.346c-0.313,-0.072 -0.628,-0.137 -0.944,-0.194c-2.304,6.967 -5.249,13.76 -8.298,20.355c2.357,-6.718 4.102,-13.569 4.629,-20.699c-0.507,-0.004 -1.015,0.009 -1.522,0.038c-0.788,12.881 -5.626,24.864 -10.904,36.797c-1.484,2.987 -2.97,5.975 -4.431,8.973c0.092,0.125 0.183,0.25 0.276,0.375c0.075,0.102 0.153,0.202 0.229,0.304c0.179,0.235 0.354,0.47 0.539,0.706c2.455,-5.651 5.06,-11.255 7.443,-16.9c1.869,-3.785 3.71,-7.58 5.469,-11.409z"/>
    </g>
    <g id="svg_13" transform="matrix(1,0,0,1,-17.485,-7.611999999999995) ">
     <path fill="#f0ded0" id="svg_14" stroke=" none" stroke-linecap="round" d="m20.378272,-92.098788c-5.158,17.098 -15.123,32.882 -22.33,49.474c0.332,0.335 0.672,0.67 1.018,1.006c7.036,-16.685 17.042,-32.446 22.482,-49.514c-0.382,-0.34 -0.772,-0.662 -1.17,-0.966z"/>
    </g>
    <g id="svg_15" transform="matrix(1,0,0,1,-8.722000000000003,-1.7479999999999905) ">
     <path fill="#f0ded0" id="svg_16" stroke=" none" stroke-linecap="round" d="m19.888271,-89.109786c-4.266,16.744 -13.759,32.562 -22.254,48.058c0.181,0.144 0.367,0.288 0.55,0.433c9.174,-16.868 19.778,-34.104 23.778,-52.48c-0.775,1.203 -1.471,2.532 -2.074,3.989z"/>
    </g>
    <g id="svg_17" transform="matrix(1,0,0,1,1.846499999999999,-2.2835000000000107) ">
     <path fill="#f0ded0" id="svg_18" stroke=" none" stroke-linecap="round" d="m21.030771,-100.529287c-2.471,23.532 -16.133,44.61 -24.014,67.178c0.349,0.229 0.702,0.458 1.058,0.687c7.75,-23.049 21.89,-44.415 24.505,-68.389c-0.522,0.153 -1.038,0.328 -1.549,0.524z"/>
    </g>
    <g id="svg_19" transform="matrix(1,0,0,1,-21.5595,-10.957999999999995) ">
     <path fill="#f0ded0" id="svg_20" stroke=" none" stroke-linecap="round" d="m20.995771,-90.857787c-0.3,-0.143 -0.603,-0.279 -0.908,-0.405c-2.718,8.781 -6.527,17.295 -10.373,25.492c-3.575,7.619 -7.432,15.121 -11.114,22.7c0.178,0.205 0.354,0.41 0.537,0.616c4.512,-9.409 9.358,-18.674 13.707,-28.142c3.005,-6.544 5.896,-13.315 8.151,-20.261z"/>
    </g>
    <g id="svg_21" transform="matrix(1,0,0,1,-14.109499999999995,-4.343999999999994) ">
     <path fill="#f0ded0" id="svg_22" stroke=" none" stroke-linecap="round" d="m20.434772,-92.042786c-5.151,17.086 -15.104,32.859 -22.312,49.436c0.344,0.311 0.691,0.621 1.047,0.932c6.979,-16.512 16.848,-32.125 22.304,-49c-0.335,-0.478 -0.68,-0.934 -1.039,-1.368z"/>
    </g>
    <g id="svg_23" transform="matrix(1,0,0,1,-4.478999999999996,-2.9629999999999903) ">
     <path fill="#f0ded0" id="svg_24" stroke=" none" stroke-linecap="round" d="m21.079271,-95.917786c-1.956,20.838 -13.657,40.116 -23.983,58.912c0.187,0.137 0.37,0.273 0.56,0.411c10.523,-19.3 22.817,-39.089 24.844,-60.528c-0.488,0.373 -0.961,0.776 -1.421,1.205z"/>
    </g>
    <g id="svg_25" transform="matrix(1,0,0,1,5.609999999999999,-1.4774999999999991) ">
     <path fill="#f0ded0" id="svg_26" stroke=" none" stroke-linecap="round" d="m21.007271,-102.377287c-1.081,24.985 -15.565,47.016 -23.986,70.616c0.347,0.214 0.698,0.428 1.051,0.642c8.262,-23.97 23.188,-46.178 24.503,-71.479c-0.526,0.054 -1.048,0.127 -1.568,0.221z"/>
    </g>
    <g id="svg_27" transform="matrix(1,0,0,1,10.333999999999996,-0.7394999999999996) ">
     <path fill="#f0ded0" id="svg_28" stroke=" none" stroke-linecap="round" d="m23.457272,-103.223289c-2.042,25.786 -19.062,48.672 -28.604,72.269c0.258,0.153 0.514,0.307 0.774,0.46c9.24,-23.713 26.486,-46.707 29.116,-72.512c-0.426,-0.084 -0.856,-0.156 -1.286,-0.217z"/>
    </g>
    <g id="svg_29" transform="matrix(1,0,0,1,18.268500000000003,0.3499999999999943) ">
     <path fill="#f0ded0" id="svg_30" stroke=" none" stroke-linecap="round" d="m21.99877,-102.469786c-0.125,26.066 -18.277,47.143 -26.041,71.222c0.641,-0.391 1.271,-0.782 1.895,-1.173c7.766,-23.44 24.974,-43.948 25.786,-69.262c-0.539,-0.282 -1.086,-0.546 -1.64,-0.787z"/>
    </g>
    <g id="svg_31" transform="matrix(1,0,0,1,28.524873766408113,-2.8825000000000074) ">
     <path fill="#f0ded0" id="svg_32" stroke=" none" stroke-linecap="round" d="m19.144399,-94.314288c-0.537,-0.517 -1.097,-1.008 -1.676,-1.471c-0.036,0.08 -0.055,0.156 -0.045,0.223c2.958,20.729 -7.146,39.496 -17.196,57.63c0.464,-0.357 0.919,-0.714 1.368,-1.07c9.664,-17.452 19.384,-35.499 17.549,-55.312z"/>
    </g>
    <g id="svg_33" transform="matrix(1,0,0,1,40.8758740151426,-4.780000000000001) ">
     <path fill="#f0ded0" id="svg_34" stroke=" none" stroke-linecap="round" d="m13.523394,-80.219789c-1.172,9.224 -4.264,18.024 -7.919,26.722c1.226,-1.659 2.305,-3.291 3.24,-4.893c3.411,-5.838 4.967,-11.279 5.133,-16.167c0.067,-1.982 -0.096,-3.872 -0.454,-5.662z"/>
    </g>
    <g id="svg_35" transform="matrix(1,0,0,1,13.571500000000007,0.5405000000000015) ">
     <path fill="#f0ded0" id="svg_36" stroke=" none" stroke-linecap="round" d="m23.322772,-103.854288c-1.184,26.358 -18.479,49.618 -28.366,73.562c0.252,0.143 0.51,0.286 0.765,0.429c9.574,-23.997 27.049,-47.303 28.918,-73.588c-0.436,-0.147 -0.875,-0.281 -1.317,-0.403z"/>
    </g>
    <g id="svg_37" transform="matrix(1,0,0,1,22.34100000000001,-0.4719999999999942) ">
     <path fill="#f0ded0" id="svg_38" stroke=" none" stroke-linecap="round" d="m21.057268,-100.016787c-0.094,0.152 -0.162,0.31 -0.161,0.46c0.22,24.181 -15.207,44.028 -23.839,65.856c0.679,-0.446 1.346,-0.892 2.002,-1.336c8.554,-21.205 23.15,-40.511 23.48,-64c-0.483,-0.345 -0.978,-0.671 -1.482,-0.98z"/>
    </g>
    <g id="svg_39" transform="matrix(1,0,0,1,34.18055892687966,-5.0064999999999955) ">
     <path fill="#f0ded0" id="svg_40" stroke=" none" stroke-linecap="round" d="m16.495714,-88.687287c-0.526,-0.75 -1.095,-1.465 -1.698,-2.144c-0.049,0.096 -0.081,0.188 -0.07,0.265c2.421,16.966 -3.909,32.615 -11.797,47.68c0.55,-0.516 1.088,-1.029 1.609,-1.542c7.312,-14.041 13.215,-28.601 11.956,-44.259z"/>
    </g>
   </g>
  </g>
  <g id="svg_41" transform="matrix(1,0,0,1,255.76897035193446,245.39706183191274) ">
   <path id="svg_42" d="m-73.95,-106.28l0.85,0l0,17.04l-38.34,0l0,-0.85l5.11,0l0,-57.93l-5.11,0l0,-0.86l19.6,0l0,0.86l-5.11,0l0,57.93l17.04,0l5.96,-16.19z" fill="#000000"/>
   <path id="svg_43" d="m-46.86,-90.09l4.26,0l0,0.85l-17.04,0l0,-0.85l4.26,0l0,-39.19l-4.26,0l0,-0.85l12.78,0l0,40.04zm-4.26,-48.56l0,0q-2.21,0 -3.66,-1.45q-1.45,-1.45 -1.45,-3.66l0,0q0,-2.22 1.45,-3.67q1.45,-1.45 3.66,-1.45l0,0q2.22,0 3.67,1.45q1.44,1.45 1.44,3.67l0,0q0,2.21 -1.44,3.66q-1.45,1.45 -3.67,1.45z" fill="#000000"/>
   <path id="svg_44" d="m-16.36,-148.88l0,58.79l4.26,0l0,0.85l-17.04,0l0,-0.85l4.26,0l0,-57.93l-4.26,0l0,-0.86l12.78,0z" fill="#000000"/>
   <path id="svg_45" d="m21.39,-88.38l0,0q2.21,0 4.09,-0.51q1.87,-0.52 3.24,-1.2l0,0q1.53,-0.76 2.89,-1.7l0,0l0,-35.79q-1.36,-0.93 -2.89,-1.7l0,0q-1.37,-0.68 -3.24,-1.19q-1.88,-0.51 -4.09,-0.51l0,0q-2.22,0 -4.09,0.51q-1.88,0.51 -3.24,1.19l0,0q-1.53,0.77 -2.9,1.7l0,0l0,35.79q1.37,0.94 2.9,1.7l0,0q1.36,0.68 3.24,1.2q1.87,0.51 4.09,0.51zm0,-43.46l0,0q4,0 7.62,1.67q3.62,1.66 6.39,4.6q2.77,2.94 4.39,7.03q1.62,4.09 1.62,8.86l0,0q0,4.77 -1.62,8.86q-1.62,4.09 -4.39,7.03q-2.77,2.94 -6.39,4.6q-3.62,1.66 -7.62,1.66l0,0q-4.01,0 -7.63,-1.66q-3.62,-1.66 -6.39,-4.6q-2.77,-2.94 -4.39,-7.03q-1.61,-4.09 -1.61,-8.86l0,0q0,-4.77 1.61,-8.86q1.62,-4.09 4.39,-7.03q2.77,-2.94 6.39,-4.6q3.62,-1.67 7.63,-1.67z" fill="#000000"/>
   <path id="svg_46" d="m75.75,-88.38l0,0q2.21,0 4.09,-0.51q1.87,-0.52 3.23,-1.2l0,0q1.54,-0.76 2.9,-1.7l0,0l0,-35.79q-1.36,-0.93 -2.9,-1.7l0,0q-1.36,-0.68 -3.23,-1.19q-1.88,-0.51 -4.09,-0.51l0,0q-2.22,0 -4.09,0.51q-1.88,0.51 -3.24,1.19l0,0q-1.54,0.77 -2.9,1.7l0,0l0,35.79q1.36,0.94 2.9,1.7l0,0q1.36,0.68 3.24,1.2q1.87,0.51 4.09,0.51zm0,-43.46l0,0q4,0 7.62,1.67q3.62,1.66 6.39,4.6q2.77,2.94 4.39,7.03q1.62,4.09 1.62,8.86l0,0q0,4.77 -1.62,8.86q-1.62,4.09 -4.39,7.03q-2.77,2.94 -6.39,4.6q-3.62,1.66 -7.62,1.66l0,0q-4.01,0 -7.63,-1.66q-3.62,-1.66 -6.39,-4.6q-2.77,-2.94 -4.39,-7.03q-1.62,-4.09 -1.62,-8.86l0,0q0,-4.77 1.62,-8.86q1.62,-4.09 4.39,-7.03q2.77,-2.94 6.39,-4.6q3.62,-1.67 7.63,-1.67z" fill="#000000"/>
   <path id="svg_47" d="m148,-90.09l4.26,0l0,0.85l-17.04,0l0,-0.85l3.4,0l-13.2,-19.17l-2.56,3.84l0,15.33l4.26,0l0,0.85l-17.04,0l0,-0.85l4.26,0l0,-57.93l-4.26,0l0,-0.86l12.78,0l0,42.18l15.34,-22.58l-6.82,0l0,-0.85l13.63,0l0,0.85l-5.96,0l-8.95,13.21l17.9,25.98z" fill="#000000"/>
  </g>
  <g id="svg_48" transform="matrix(1,0,0,1,255.79061193703984,305.79200000000003) ">
   <path id="svg_49" d="m-12.69,-111.41c-0.45,0 0.18,-1.65 0.18,-2.63c0,-1.26 -0.56,-2.07 -1.53,-2.62c-0.25,-0.15 -0.24,-0.24 -0.04,-0.38c0.9,-0.63 1.51,-1.53 1.51,-2.76c0,-2.35 -2.12,-3.69 -4.55,-3.69l-3.11,0c-0.31,0 -0.56,0.26 -0.56,0.72c0,0 0,11.88 0,12.03c0,0.14 0.25,0.39 0.56,0.39l0.05,0c0.31,0 0.56,-0.21 0.56,-0.39c0,-0.16 0,-5.15 0,-5.15c0,-0.16 0.05,-0.2 0.21,-0.2l2.81,0c2.09,0 2.9,0.6 2.9,2.05c0,1.25 -0.41,2.67 0.09,3.33c0.2,0.27 0.59,0.47 0.92,0.47c1.1,0 0.99,-1.17 0,-1.17zm-4.43,-5.85l-2.3,0c-0.17,0 -0.2,-0.05 -0.2,-0.21l0,-4.67c0,-0.14 0.05,-0.19 0.21,-0.19l2.29,0c1.78,0 3.4,0.81 3.4,2.53c0,1.7 -1.56,2.54 -3.4,2.54z" opacity="0.71" fill="#000000"/>
   <path id="svg_50" d="m0.52,-111.52l-5.67,0c-0.16,0 -0.2,-0.05 -0.2,-0.21l0,-4.57c0,-0.17 0.06,-0.2 0.24,-0.2l4.6,0c0.31,0 0.56,-0.25 0.56,-0.56l0,-0.04c0,-0.3 -0.25,-0.55 -0.56,-0.55l-4.64,0c-0.16,0 -0.2,-0.06 -0.2,-0.24l0,-4.25c0,-0.14 0.06,-0.19 0.24,-0.19l5.29,0c0.3,0 0.56,-0.26 0.56,-0.56l0,-0.04c0,-0.3 -0.26,-0.56 -0.56,-0.56l-6.14,0c-0.31,0 -0.54,0.26 -0.54,0.56l0,12.03c0,0.3 0.23,0.55 0.54,0.55l6.48,0c0.31,0 0.56,-0.25 0.56,-0.55l0,-0.06c0,-0.3 -0.25,-0.56 -0.56,-0.56z" opacity="0.71" fill="#000000"/>
   <path id="svg_51" d="m15.21,-123.49l-0.06,0c-0.3,0 -0.55,0.26 -0.55,0.56c0,0 0,8.93 0,9.4c0,0.47 -0.09,0.63 -0.4,0.16c-0.32,-0.45 -6.8,-9.88 -6.8,-9.88c-0.17,-0.24 -0.45,-0.29 -0.72,-0.18c-0.2,0.07 -0.35,0.34 -0.35,0.52l0,12.01c0,0.3 0.26,0.55 0.56,0.55l0.06,0c0.3,0 0.55,-0.25 0.55,-0.55c0,0 0,-8.72 0,-9.27c0,-0.56 0.17,-0.63 0.45,-0.22c0.27,0.4 6.74,9.79 6.74,9.79c0.16,0.24 0.45,0.31 0.7,0.2c0.21,-0.09 0.38,-0.29 0.38,-0.52l0,-12.01c0,-0.3 -0.26,-0.56 -0.56,-0.56z" opacity="0.71" fill="#000000"/>
   <path id="svg_52" d="m28.33,-123.49l-7.06,0c-0.3,0 -0.55,0.26 -0.55,0.56l0,0.04c0,0.3 0.25,0.56 0.55,0.56l2.76,0c0.16,0 0.2,0.05 0.2,0.23l0,11.2c0,0.3 0.25,0.55 0.55,0.55l0.04,0c0.31,0 0.56,-0.25 0.56,-0.55l0,-11.24c0,-0.14 0.05,-0.19 0.23,-0.19l2.72,0c0.31,0 0.56,-0.26 0.56,-0.56l0,-0.04c0,-0.3 -0.25,-0.56 -0.56,-0.56z" opacity="0.71" fill="#000000"/>
   <path id="svg_53" d="m38.39,-123.14c-0.09,-0.24 -0.3,-0.35 -0.54,-0.35c-0.21,0 -0.45,0.11 -0.54,0.35l-5.04,12c-0.11,0.27 0.02,0.61 0.31,0.72l0.03,0.02c0.29,0.13 0.62,-0.02 0.74,-0.29c0,0 1.28,-3.04 1.37,-3.26c0.09,-0.21 0.22,-0.28 0.43,-0.28c0.18,0 4.2,0 5.38,0c0.22,0 0.36,0.07 0.44,0.23c0.07,0.16 1.38,3.31 1.38,3.31c0.13,0.27 0.45,0.42 0.74,0.29l0.04,-0.02c0.28,-0.11 0.43,-0.45 0.3,-0.72l-5.04,-12zm-2.97,7.5c0.06,-0.12 1.69,-4.26 2.25,-5.47c0.15,-0.31 0.22,-0.31 0.34,0c0.51,1.21 2.16,5.24 2.25,5.42c0.09,0.21 0.06,0.29 -0.19,0.29c-0.24,0 -3.42,0 -4.43,0c-0.2,0 -0.27,-0.08 -0.22,-0.24z" opacity="0.71" fill="#000000"/>
   <path id="svg_54" d="m54.95,-111.52l-5.14,0c-0.17,0 -0.2,-0.05 -0.2,-0.21l0,-11.2c0,-0.3 -0.25,-0.56 -0.56,-0.56l-0.05,0c-0.31,0 -0.56,0.26 -0.56,0.56l0,12.03c0,0.3 0.25,0.55 0.56,0.55l5.95,0c0.31,0 0.56,-0.25 0.56,-0.55l0,-0.06c0,-0.3 -0.25,-0.56 -0.56,-0.56z" opacity="0.71" fill="#000000"/>
  </g>
 </g>
</svg>